<mxfile host="65bd71144e">
    <diagram id="xA9rtQ47i_W9qYOXPk5k" name="第 1 页">
        <mxGraphModel dx="1737" dy="825" grid="1" gridSize="10" guides="1" tooltips="1" connect="1" arrows="1" fold="1" page="1" pageScale="1" pageWidth="827" pageHeight="1169" math="0" shadow="0">
            <root>
                <mxCell id="0"/>
                <mxCell id="1" parent="0"/>
                <mxCell id="44" style="edgeStyle=none;html=1;strokeWidth=2;entryX=0.5;entryY=0;entryDx=0;entryDy=0;" edge="1" parent="1" source="3" target="47">
                    <mxGeometry relative="1" as="geometry">
                        <mxPoint x="240" y="270" as="targetPoint"/>
                    </mxGeometry>
                </mxCell>
                <mxCell id="3" value="开始" style="rounded=1;whiteSpace=wrap;html=1;arcSize=50;fontSize=19;" vertex="1" parent="1">
                    <mxGeometry x="180" y="120" width="120" height="60" as="geometry"/>
                </mxCell>
                <mxCell id="48" style="edgeStyle=none;html=1;strokeWidth=2;entryX=0.5;entryY=0;entryDx=0;entryDy=0;" edge="1" parent="1" source="47" target="63">
                    <mxGeometry relative="1" as="geometry">
                        <mxPoint x="80" y="460" as="targetPoint"/>
                        <Array as="points">
                            <mxPoint x="80" y="315"/>
                        </Array>
                    </mxGeometry>
                </mxCell>
                <mxCell id="49" style="edgeStyle=none;html=1;strokeWidth=2;entryX=0.5;entryY=0;entryDx=0;entryDy=0;" edge="1" parent="1" source="47" target="54">
                    <mxGeometry relative="1" as="geometry">
                        <mxPoint x="400" y="460" as="targetPoint"/>
                        <Array as="points">
                            <mxPoint x="400" y="315"/>
                        </Array>
                    </mxGeometry>
                </mxCell>
                <mxCell id="47" value="上传或下载" style="rhombus;whiteSpace=wrap;html=1;fontSize=19;" vertex="1" parent="1">
                    <mxGeometry x="180" y="270" width="125" height="90" as="geometry"/>
                </mxCell>
                <mxCell id="52" value="&lt;span style=&quot;&quot;&gt;上传&lt;/span&gt;" style="text;html=1;align=center;verticalAlign=middle;resizable=0;points=[];autosize=1;strokeColor=none;fillColor=none;fontSize=19;" vertex="1" parent="1">
                    <mxGeometry x="100" y="280" width="60" height="40" as="geometry"/>
                </mxCell>
                <mxCell id="53" value="&lt;span style=&quot;&quot;&gt;下载&lt;/span&gt;" style="text;html=1;align=center;verticalAlign=middle;resizable=0;points=[];autosize=1;strokeColor=none;fillColor=none;fontSize=19;" vertex="1" parent="1">
                    <mxGeometry x="330" y="270" width="60" height="40" as="geometry"/>
                </mxCell>
                <mxCell id="55" style="edgeStyle=none;html=1;strokeWidth=2;fontSize=19;entryX=0.5;entryY=0;entryDx=0;entryDy=0;" edge="1" parent="1" source="54" target="56">
                    <mxGeometry relative="1" as="geometry">
                        <mxPoint x="400" y="660" as="targetPoint"/>
                    </mxGeometry>
                </mxCell>
                <mxCell id="59" style="edgeStyle=none;html=1;strokeWidth=2;fontSize=19;entryX=0.5;entryY=1;entryDx=0;entryDy=0;" edge="1" parent="1" source="54" target="60">
                    <mxGeometry relative="1" as="geometry">
                        <mxPoint x="620" y="495" as="targetPoint"/>
                        <Array as="points">
                            <mxPoint x="680" y="490"/>
                        </Array>
                    </mxGeometry>
                </mxCell>
                <mxCell id="54" value="查找文件路径" style="rhombus;whiteSpace=wrap;html=1;fontSize=19;" vertex="1" parent="1">
                    <mxGeometry x="340" y="450" width="125" height="90" as="geometry"/>
                </mxCell>
                <mxCell id="56" value="获取文件" style="rounded=1;whiteSpace=wrap;html=1;arcSize=21;fontSize=19;" vertex="1" parent="1">
                    <mxGeometry x="342.5" y="660" width="120" height="60" as="geometry"/>
                </mxCell>
                <mxCell id="57" value="存在" style="text;html=1;align=center;verticalAlign=middle;resizable=0;points=[];autosize=1;strokeColor=none;fillColor=none;fontSize=19;" vertex="1" parent="1">
                    <mxGeometry x="400" y="580" width="60" height="40" as="geometry"/>
                </mxCell>
                <mxCell id="58" value="&lt;span style=&quot;&quot;&gt;不存在&lt;/span&gt;" style="text;html=1;align=center;verticalAlign=middle;resizable=0;points=[];autosize=1;strokeColor=none;fillColor=none;fontSize=19;" vertex="1" parent="1">
                    <mxGeometry x="500" y="450" width="80" height="40" as="geometry"/>
                </mxCell>
                <mxCell id="61" style="edgeStyle=none;html=1;strokeWidth=2;fontSize=19;" edge="1" parent="1" source="60">
                    <mxGeometry relative="1" as="geometry">
                        <mxPoint x="240" y="240" as="targetPoint"/>
                    </mxGeometry>
                </mxCell>
                <mxCell id="60" value="错误提示" style="rounded=1;whiteSpace=wrap;html=1;arcSize=22;fontSize=19;" vertex="1" parent="1">
                    <mxGeometry x="620" y="210" width="120" height="60" as="geometry"/>
                </mxCell>
                <mxCell id="65" style="edgeStyle=none;html=1;entryX=1;entryY=0.5;entryDx=0;entryDy=0;strokeWidth=2;fontSize=19;" edge="1" parent="1" source="63" target="64">
                    <mxGeometry relative="1" as="geometry"/>
                </mxCell>
                <mxCell id="72" style="edgeStyle=none;html=1;entryX=0.5;entryY=0;entryDx=0;entryDy=0;strokeWidth=2;fontSize=19;" edge="1" parent="1" source="63" target="71">
                    <mxGeometry relative="1" as="geometry"/>
                </mxCell>
                <mxCell id="63" value="查找文件路径" style="rhombus;whiteSpace=wrap;html=1;fontSize=19;" vertex="1" parent="1">
                    <mxGeometry x="20" y="460" width="125" height="90" as="geometry"/>
                </mxCell>
                <mxCell id="68" style="edgeStyle=none;html=1;strokeWidth=2;fontSize=19;" edge="1" parent="1" source="64">
                    <mxGeometry relative="1" as="geometry">
                        <mxPoint x="240" y="240" as="targetPoint"/>
                        <Array as="points">
                            <mxPoint x="-157" y="240"/>
                        </Array>
                    </mxGeometry>
                </mxCell>
                <mxCell id="64" value="是否更新" style="rhombus;whiteSpace=wrap;html=1;fontSize=19;" vertex="1" parent="1">
                    <mxGeometry x="-220" y="460" width="125" height="90" as="geometry"/>
                </mxCell>
                <mxCell id="66" value="存在" style="text;html=1;align=center;verticalAlign=middle;resizable=0;points=[];autosize=1;strokeColor=none;fillColor=none;fontSize=19;" vertex="1" parent="1">
                    <mxGeometry x="-60" y="470" width="60" height="40" as="geometry"/>
                </mxCell>
                <mxCell id="69" value="是" style="text;html=1;align=center;verticalAlign=middle;resizable=0;points=[];autosize=1;strokeColor=none;fillColor=none;fontSize=19;" vertex="1" parent="1">
                    <mxGeometry x="-150" y="570" width="40" height="40" as="geometry"/>
                </mxCell>
                <mxCell id="70" value="否" style="text;html=1;align=center;verticalAlign=middle;resizable=0;points=[];autosize=1;strokeColor=none;fillColor=none;fontSize=19;" vertex="1" parent="1">
                    <mxGeometry x="-80" y="200" width="40" height="40" as="geometry"/>
                </mxCell>
                <mxCell id="74" style="edgeStyle=none;html=1;entryX=0.5;entryY=0;entryDx=0;entryDy=0;strokeWidth=2;fontSize=19;" edge="1" parent="1" source="71" target="73">
                    <mxGeometry relative="1" as="geometry"/>
                </mxCell>
                <mxCell id="71" value="上传成功" style="rounded=1;whiteSpace=wrap;html=1;arcSize=17;fontSize=19;" vertex="1" parent="1">
                    <mxGeometry x="25" y="660" width="120" height="60" as="geometry"/>
                </mxCell>
                <mxCell id="76" style="edgeStyle=none;html=1;entryX=0.5;entryY=0;entryDx=0;entryDy=0;strokeWidth=2;fontSize=19;" edge="1" parent="1" source="73" target="75">
                    <mxGeometry relative="1" as="geometry"/>
                </mxCell>
                <mxCell id="73" value="更新文件路径" style="rounded=1;whiteSpace=wrap;html=1;arcSize=17;fontSize=19;" vertex="1" parent="1">
                    <mxGeometry x="25" y="800" width="120" height="60" as="geometry"/>
                </mxCell>
                <mxCell id="75" value="结束" style="rounded=1;whiteSpace=wrap;html=1;arcSize=50;fontSize=19;" vertex="1" parent="1">
                    <mxGeometry x="25" y="940" width="120" height="60" as="geometry"/>
                </mxCell>
            </root>
        </mxGraphModel>
    </diagram>
</mxfile>